<svg width="24" height="24" viewBox="0 0 24 24" fill="none" xmlns="http://www.w3.org/2000/svg">
<path d="M14.4 13.2H13.2V12C13.2 11.6818 13.0736 11.3765 12.8485 11.1515C12.6235 10.9265 12.3182 10.8 12 10.8C11.6817 10.8 11.3765 10.9265 11.1515 11.1515C10.9264 11.3765 10.8 11.6818 10.8 12V13.2H9.59999C9.28173 13.2 8.97651 13.3265 8.75146 13.5515C8.52642 13.7765 8.39999 14.0818 8.39999 14.4C8.39999 14.7183 8.52642 15.0235 8.75146 15.2486C8.97651 15.4736 9.28173 15.6 9.59999 15.6H10.8V16.8C10.8 17.1183 10.9264 17.4235 11.1515 17.6485C11.3765 17.8736 11.6817 18 12 18C12.3182 18 12.6235 17.8736 12.8485 17.6485C13.0736 17.4235 13.2 17.1183 13.2 16.8V15.6H14.4C14.7182 15.6 15.0235 15.4736 15.2485 15.2486C15.4736 15.0235 15.6 14.7183 15.6 14.4C15.6 14.0818 15.4736 13.7765 15.2485 13.5515C15.0235 13.3265 14.7182 13.2 14.4 13.2ZM20.4 4.80003H12.864L12.48 3.60004C12.231 2.89591 11.7693 2.28664 11.1587 1.85663C10.5481 1.42662 9.81882 1.19716 9.07199 1.20004H3.6C2.64522 1.20004 1.72954 1.57932 1.05441 2.25445C0.379284 2.92958 0 3.84526 0 4.80003V20.4C0 21.3548 0.379284 22.2705 1.05441 22.9456C1.72954 23.6207 2.64522 24 3.6 24H20.4C21.3548 24 22.2704 23.6207 22.9456 22.9456C23.6207 22.2705 24 21.3548 24 20.4V8.40003C24 7.44525 23.6207 6.52958 22.9456 5.85445C22.2704 5.17932 21.3548 4.80003 20.4 4.80003ZM21.6 20.4C21.6 20.7183 21.4735 21.0235 21.2485 21.2485C21.0235 21.4736 20.7182 21.6 20.4 21.6H3.6C3.28174 21.6 2.97651 21.4736 2.75147 21.2485C2.52643 21.0235 2.4 20.7183 2.4 20.4V4.80003C2.4 4.48178 2.52643 4.17655 2.75147 3.95151C2.97651 3.72646 3.28174 3.60004 3.6 3.60004H9.07199C9.32356 3.59939 9.56898 3.67782 9.77354 3.82425C9.97811 3.97067 10.1315 4.17769 10.212 4.41604L10.86 6.38403C10.9405 6.62238 11.0939 6.82939 11.2984 6.97582C11.503 7.12225 11.7484 7.20068 12 7.20003H20.4C20.7182 7.20003 21.0235 7.32646 21.2485 7.5515C21.4735 7.77655 21.6 8.08177 21.6 8.40003V20.4Z" fill="white"/>
</svg>
