<svg width="16" height="16" viewBox="0 0 16 16" fill="none" xmlns="http://www.w3.org/2000/svg">
<path d="M9.59999 8.80003H8.79999V8.00003C8.79999 7.78785 8.7157 7.58437 8.56568 7.43434C8.41565 7.28431 8.21216 7.20003 7.99999 7.20003C7.78782 7.20003 7.58434 7.28431 7.43431 7.43434C7.28428 7.58437 7.19999 7.78785 7.19999 8.00003V8.80003H6.39999C6.18782 8.80003 5.98434 8.88431 5.83431 9.03434C5.68428 9.18437 5.59999 9.38785 5.59999 9.60003C5.59999 9.8122 5.68428 10.0157 5.83431 10.1657C5.98434 10.3157 6.18782 10.4 6.39999 10.4H7.19999V11.2C7.19999 11.4122 7.28428 11.6157 7.43431 11.7657C7.58434 11.9157 7.78782 12 7.99999 12C8.21216 12 8.41565 11.9157 8.56568 11.7657C8.7157 11.6157 8.79999 11.4122 8.79999 11.2V10.4H9.59999C9.81216 10.4 10.0156 10.3157 10.1657 10.1657C10.3157 10.0157 10.4 9.8122 10.4 9.60003C10.4 9.38785 10.3157 9.18437 10.1657 9.03434C10.0156 8.88431 9.81216 8.80003 9.59999 8.80003ZM13.6 3.20003H8.57599L8.31999 2.40003C8.15403 1.93062 7.84619 1.52444 7.43911 1.23776C7.03204 0.951091 6.54588 0.798117 6.04799 0.800036H2.4C1.76348 0.800036 1.15303 1.05289 0.702943 1.50298C0.252856 1.95307 0 2.56351 0 3.20003V13.6C0 14.2365 0.252856 14.847 0.702943 15.2971C1.15303 15.7472 1.76348 16 2.4 16H13.6C14.2365 16 14.847 15.7472 15.297 15.2971C15.7471 14.847 16 14.2365 16 13.6V5.60003C16 4.96351 15.7471 4.35306 15.297 3.90298C14.847 3.45289 14.2365 3.20003 13.6 3.20003ZM14.4 13.6C14.4 13.8122 14.3157 14.0157 14.1657 14.1657C14.0156 14.3157 13.8122 14.4 13.6 14.4H2.4C2.18782 14.4 1.98434 14.3157 1.83431 14.1657C1.68428 14.0157 1.6 13.8122 1.6 13.6V3.20003C1.6 2.98786 1.68428 2.78438 1.83431 2.63435C1.98434 2.48432 2.18782 2.40003 2.4 2.40003H6.04799C6.21571 2.3996 6.37932 2.45189 6.5157 2.54951C6.65207 2.64713 6.75432 2.78514 6.80799 2.94403L7.23999 4.25603C7.29366 4.41493 7.39591 4.55294 7.53229 4.65056C7.66867 4.74818 7.83228 4.80046 7.99999 4.80003H13.6C13.8122 4.80003 14.0156 4.88432 14.1657 5.03435C14.3157 5.18437 14.4 5.38786 14.4 5.60003V13.6Z" fill="#CE036A"/>
</svg>
