<svg width="11" height="14" viewBox="0 0 11 14" fill="none" xmlns="http://www.w3.org/2000/svg">
<path fill-rule="evenodd" clip-rule="evenodd" d="M10.9375 1.71875V9.585C10.9375 9.875 10.8225 10.1531 10.6169 10.3581L7.85812 13.1169C7.65312 13.3225 7.375 13.4375 7.085 13.4375H1.71875C1.26313 13.4375 0.825625 13.2563 0.503125 12.9344C0.18125 12.6119 0 12.1744 0 11.7188V1.71875C0 1.26313 0.18125 0.825625 0.503125 0.503125C0.825625 0.18125 1.26313 0 1.71875 0H9.21875C9.67437 0 10.1119 0.18125 10.4344 0.503125C10.7562 0.825625 10.9375 1.26313 10.9375 1.71875ZM10 1.71875C10 1.51125 9.9175 1.31313 9.77125 1.16625C9.62438 1.02 9.42625 0.9375 9.21875 0.9375H1.71875C1.51125 0.9375 1.31313 1.02 1.16625 1.16625C1.02 1.31313 0.9375 1.51125 0.9375 1.71875V11.7188C0.9375 11.9263 1.02 12.1244 1.16625 12.2713C1.31313 12.4175 1.51125 12.5 1.71875 12.5H7.085C7.12625 12.5 7.16625 12.4838 7.19562 12.4544L9.95438 9.69563C9.98375 9.66625 10 9.62625 10 9.585V1.71875Z" fill="black"/>
<path fill-rule="evenodd" clip-rule="evenodd" d="M7.8125 12.6562C7.8125 12.915 7.6025 13.125 7.34375 13.125C7.085 13.125 6.875 12.915 6.875 12.6562V10.4688C6.875 9.86437 7.36437 9.375 7.96875 9.375H10.1562C10.415 9.375 10.625 9.585 10.625 9.84375C10.625 10.1025 10.415 10.3125 10.1562 10.3125H7.96875C7.8825 10.3125 7.8125 10.3825 7.8125 10.4688V12.6562Z" fill="black"/>
<path fill-rule="evenodd" clip-rule="evenodd" d="M2.96875 3.4375C2.71 3.4375 2.5 3.2275 2.5 2.96875C2.5 2.71 2.71 2.5 2.96875 2.5H7.96875C8.2275 2.5 8.4375 2.71 8.4375 2.96875C8.4375 3.2275 8.2275 3.4375 7.96875 3.4375H2.96875Z" fill="black"/>
<path fill-rule="evenodd" clip-rule="evenodd" d="M2.96875 5.9375C2.71 5.9375 2.5 5.7275 2.5 5.46875C2.5 5.21 2.71 5 2.96875 5H7.96875C8.2275 5 8.4375 5.21 8.4375 5.46875C8.4375 5.7275 8.2275 5.9375 7.96875 5.9375H2.96875Z" fill="black"/>
<path fill-rule="evenodd" clip-rule="evenodd" d="M2.96875 8.4375C2.71 8.4375 2.5 8.2275 2.5 7.96875C2.5 7.71 2.71 7.5 2.96875 7.5H6.09375C6.3525 7.5 6.5625 7.71 6.5625 7.96875C6.5625 8.2275 6.3525 8.4375 6.09375 8.4375H2.96875Z" fill="black"/>
<path fill-rule="evenodd" clip-rule="evenodd" d="M2.96875 10.9375C2.71 10.9375 2.5 10.7275 2.5 10.4688C2.5 10.21 2.71 10 2.96875 10H5.15625C5.415 10 5.625 10.21 5.625 10.4688C5.625 10.7275 5.415 10.9375 5.15625 10.9375H2.96875Z" fill="black"/>
</svg>
