<svg width="11" height="8" viewBox="0 0 11 8" fill="none" xmlns="http://www.w3.org/2000/svg">
<path d="M5.95004 6.76085L10.19 1.94368C10.2838 1.83806 10.3582 1.7124 10.4089 1.57395C10.4597 1.43551 10.4858 1.28701 10.4858 1.13703C10.4858 0.987044 10.4597 0.838546 10.4089 0.700099C10.3582 0.561651 10.2838 0.435994 10.19 0.330377C10.0027 0.118772 9.74923 -3.21984e-08 9.48504 -4.37463e-08C9.22086 -5.52942e-08 8.9674 0.118772 8.78004 0.330377L5.24004 4.35226L1.70004 0.330376C1.51268 0.118772 1.25923 -4.03308e-07 0.995041 -4.14856e-07C0.730855 -4.26404e-07 0.477404 0.118772 0.290041 0.330376C0.19736 0.436536 0.124035 0.562437 0.0742702 0.70086C0.0245056 0.839282 -0.000719114 0.987504 4.1912e-05 1.13703C-0.000719127 1.28655 0.0245056 1.43477 0.0742702 1.57319C0.124035 1.71161 0.19736 1.83752 0.290041 1.94367L4.53004 6.76085C4.623 6.86734 4.73361 6.95186 4.85546 7.00954C4.97732 7.06722 5.10803 7.09691 5.24004 7.09691C5.37205 7.09691 5.50276 7.06722 5.62462 7.00954C5.74648 6.95186 5.85708 6.86734 5.95004 6.76085Z" fill="#9B9B9B"/>
</svg>
