<svg width="16" height="16" viewBox="0 0 16 16" fill="none" xmlns="http://www.w3.org/2000/svg">
<path d="M15.9937 7.01162L15.6214 2.16952C15.5473 1.20581 14.7941 0.452619 13.8304 0.378525L8.98834 0.00618109C8.40453 -0.0386627 7.87719 0.156431 7.46322 0.570431L0.548 7.48565C0.194625 7.83903 0 8.31028 0 8.81265C0 9.31499 0.194625 9.78627 0.548 10.1397L5.86031 15.452C6.22619 15.8179 6.70666 16.0008 7.18731 16.0008C7.66781 16.0008 8.1485 15.8178 8.51431 15.452L15.4296 8.53674C15.8436 8.12271 16.0387 7.59534 15.9937 7.01162ZM14.7224 7.82965L7.80722 14.7449C7.46537 15.0867 6.90922 15.0866 6.56744 14.7449L1.25513 9.43256C1.09059 9.26802 1 9.04787 1 8.81265C1 8.5774 1.09059 8.35724 1.25509 8.19274L8.17034 1.27752C8.35666 1.09118 8.57178 0.9999 8.82575 0.9999C8.85391 0.9999 8.88256 1.00099 8.91169 1.00324L13.7538 1.37559C14.2222 1.41156 14.5884 1.77771 14.6244 2.24615L14.9967 7.08827C15.0192 7.38015 14.9294 7.62265 14.7224 7.82965ZM11.7107 2.3894C10.6632 2.3894 9.81094 3.24165 9.81094 4.28921C9.81094 5.33677 10.6632 6.18902 11.7107 6.18906C12.7583 6.18902 13.6106 5.33677 13.6106 4.28921C13.6106 3.24165 12.7583 2.3894 11.7107 2.3894ZM11.7107 5.18906C11.2146 5.18902 10.8109 4.78537 10.8109 4.28921C10.8109 3.79306 11.2146 3.3894 11.7107 3.3894C12.2069 3.3894 12.6106 3.79306 12.6106 4.28921C12.6106 4.78537 12.2069 5.18902 11.7107 5.18906Z" fill="#5051F9"/>
</svg>
