<svg width="35" height="35" viewBox="0 0 35 35" fill="none" xmlns="http://www.w3.org/2000/svg">
<g clip-path="url(#clip0_1_3)">
<g filter="url(#filter0_d_1_3)">
<path d="M24.8325 0H10.1675C3.7975 0 0 3.7975 0 10.1675V24.8325C0 31.2025 3.7975 35 10.1675 35H24.8325C31.2025 35 35 31.2025 35 24.8325V10.1675C35 3.7975 31.2025 0 24.8325 0ZM13.9475 22.575L10.01 26.5125C9.7475 26.775 9.415 26.8975 9.0825 26.8975C8.75 26.8975 8.4 26.775 8.155 26.5125L6.8425 25.2C6.3175 24.6925 6.3175 23.8525 6.8425 23.345C7.35 22.8375 8.1725 22.8375 8.6975 23.345L9.0825 23.73L12.0925 20.72C12.6 20.2125 13.4225 20.2125 13.9475 20.72C14.455 21.2275 14.455 22.0675 13.9475 22.575ZM13.9475 10.325L10.01 14.2625C9.7475 14.525 9.415 14.6475 9.0825 14.6475C8.75 14.6475 8.4 14.525 8.155 14.2625L6.8425 12.95C6.3175 12.4425 6.3175 11.6025 6.8425 11.095C7.35 10.5875 8.1725 10.5875 8.6975 11.095L9.0825 11.48L12.0925 8.47C12.6 7.9625 13.4225 7.9625 13.9475 8.47C14.455 8.9775 14.455 9.8175 13.9475 10.325ZM27.23 25.585H18.0425C17.325 25.585 16.73 24.99 16.73 24.2725C16.73 23.555 17.325 22.96 18.0425 22.96H27.23C27.965 22.96 28.5425 23.555 28.5425 24.2725C28.5425 24.99 27.965 25.585 27.23 25.585ZM27.23 13.335H18.0425C17.325 13.335 16.73 12.74 16.73 12.0225C16.73 11.305 17.325 10.71 18.0425 10.71H27.23C27.965 10.71 28.5425 11.305 28.5425 12.0225C28.5425 12.74 27.965 13.335 27.23 13.335Z" fill="#5051F9"/>
</g>
</g>
<defs>
<filter id="filter0_d_1_3" x="-16" y="-8" width="67" height="67" filterUnits="userSpaceOnUse" color-interpolation-filters="sRGB">
<feFlood flood-opacity="0" result="BackgroundImageFix"/>
<feColorMatrix in="SourceAlpha" type="matrix" values="0 0 0 0 0 0 0 0 0 0 0 0 0 0 0 0 0 0 127 0" result="hardAlpha"/>
<feOffset dy="8"/>
<feGaussianBlur stdDeviation="8"/>
<feComposite in2="hardAlpha" operator="out"/>
<feColorMatrix type="matrix" values="0 0 0 0 0 0 0 0 0 0 0 0 0 0 0 0 0 0 0.2 0"/>
<feBlend mode="normal" in2="BackgroundImageFix" result="effect1_dropShadow_1_3"/>
<feBlend mode="normal" in="SourceGraphic" in2="effect1_dropShadow_1_3" result="shape"/>
</filter>
<clipPath id="clip0_1_3">
<rect width="35" height="35" fill="white"/>
</clipPath>
</defs>
</svg>
