<svg width="24" height="24" viewBox="0 0 24 24" fill="none" xmlns="http://www.w3.org/2000/svg">
<g id="delete 1">
<path id="Vector" d="M5 7C5.26521 7 5.51957 7.10536 5.70711 7.29289C5.89464 7.48043 6 7.73478 6 8V19.191C6.02868 19.6967 6.25603 20.1706 6.6325 20.5094C7.00898 20.8482 7.5041 21.0246 8.01 21H15.99C16.4959 21.0246 16.991 20.8482 17.3675 20.5094C17.744 20.1706 17.9713 19.6967 18 19.191V8C18 7.73478 18.1054 7.48043 18.2929 7.29289C18.4804 7.10536 18.7348 7 19 7C19.2652 7 19.5196 7.10536 19.7071 7.29289C19.8946 7.48043 20 7.73478 20 8V19.191C19.9715 20.2272 19.5334 21.2099 18.7818 21.9238C18.0302 22.6378 17.0263 23.0247 15.99 23H8.01C6.97367 23.0247 5.96978 22.6378 5.21818 21.9238C4.46658 21.2099 4.02854 20.2272 4 19.191V8C4 7.73478 4.10535 7.48043 4.29289 7.29289C4.48043 7.10536 4.73478 7 5 7Z" fill="#FF0000"/>
<path id="Vector_2" d="M4 4H8V2C8 1.73478 8.10536 1.48043 8.29289 1.29289C8.48043 1.10536 8.73478 1 9 1H15C15.2652 1 15.5196 1.10536 15.7071 1.29289C15.8946 1.48043 16 1.73478 16 2V4H20C20.2652 4 20.5196 4.10536 20.7071 4.29289C20.8946 4.48043 21 4.73478 21 5C21 5.26522 20.8946 5.51957 20.7071 5.70711C20.5196 5.89464 20.2652 6 20 6H4C3.73478 6 3.48043 5.89464 3.29289 5.70711C3.10536 5.51957 3 5.26522 3 5C3 4.73478 3.10536 4.48043 3.29289 4.29289C3.48043 4.10536 3.73478 4 4 4ZM14 4V3H10V4H14Z" fill="#FF0000"/>
<path id="Vector_3" d="M13 17V10C13 9.73478 13.1054 9.48043 13.2929 9.29289C13.4804 9.10536 13.7348 9 14 9C14.2652 9 14.5196 9.10536 14.7071 9.29289C14.8946 9.48043 15 9.73478 15 10V17C15 17.2652 14.8946 17.5196 14.7071 17.7071C14.5196 17.8946 14.2652 18 14 18C13.7348 18 13.4804 17.8946 13.2929 17.7071C13.1054 17.5196 13 17.2652 13 17Z" fill="#FF0000"/>
<path id="Vector_4" d="M9 17V10C9 9.73478 9.10536 9.48043 9.29289 9.29289C9.48043 9.10536 9.73478 9 10 9C10.2652 9 10.5196 9.10536 10.7071 9.29289C10.8946 9.48043 11 9.73478 11 10V17C11 17.2652 10.8946 17.5196 10.7071 17.7071C10.5196 17.8946 10.2652 18 10 18C9.73478 18 9.48043 17.8946 9.29289 17.7071C9.10536 17.5196 9 17.2652 9 17Z" fill="#FF0000"/>
</g>
</svg>
