<svg width="24" height="24" viewBox="0 0 24 24" fill="none" xmlns="http://www.w3.org/2000/svg">
<g clip-path="url(#clip0_1_102)">
<path d="M2.27041 19.2H2.40016L8.65959 17.8378C8.78151 17.8175 8.89449 17.7611 8.98388 17.6757L19.5892 7.07035C20.3639 6.29731 20.7961 5.24584 20.7892 4.15148C20.7906 3.04861 20.3598 1.98914 19.5892 1.20014C18.8162 0.425416 17.7647 -0.00682778 16.6703 0.000186954C15.5689 -0.00955918 14.5125 0.436466 13.7514 1.23261L3.17848 11.8379C3.08524 11.9129 3.01727 12.0148 2.98387 12.1298L1.62177 18.3892C1.58459 18.6139 1.65684 18.8429 1.81638 19.0055C1.93613 19.1276 2.09933 19.1976 2.27041 19.2ZM16.6703 1.29748C18.2286 1.29735 19.4919 2.56056 19.4921 4.11889C19.4921 4.12975 19.492 4.14062 19.4919 4.15148C19.5025 4.89386 19.2096 5.60843 18.6811 6.12982L14.692 2.10821C15.2175 1.58595 15.9293 1.29419 16.6703 1.29748ZM13.7838 3.0488L17.773 7.03795L8.52979 16.2487L4.54064 12.2919L13.7838 3.0488ZM4.02174 13.5893L7.2325 16.8L3.11361 17.7082L4.02174 13.5893Z" fill="#0ACF83"/>
<path d="M22.8648 22.7027H1.13522C0.77697 22.7027 0.486572 22.9931 0.486572 23.3514C0.486572 23.7096 0.77697 24 1.13522 24H22.8648C23.2231 24 23.5134 23.7096 23.5134 23.3514C23.5134 22.9931 23.2231 22.7027 22.8648 22.7027Z" fill="#0ACF83"/>
</g>
<defs>
<clipPath id="clip0_1_102">
<rect width="24" height="24" fill="white"/>
</clipPath>
</defs>
</svg>
