<svg width="24" height="24" viewBox="0 0 24 24" fill="none" xmlns="http://www.w3.org/2000/svg">
<path d="M22.0001 0H13.6874C13.1375 0 12.3689 0.318575 11.9804 0.706819L0.58364 12.1035C-0.194547 12.8808 -0.194547 14.1552 0.58364 14.9316L9.06945 23.4171C9.84588 24.1944 11.1191 24.1944 11.8967 23.4163L23.2934 12.0213C23.6816 11.6331 24.0002 10.8633 24.0002 10.3146V2.0001C24.0002 0.900296 23.0999 0 22.0001 0ZM17.9999 8.00012C16.8953 8.00012 15.9998 7.1037 15.9998 6.00002C15.9998 4.89453 16.8953 3.99992 17.9999 3.99992C19.1045 3.99992 20.0003 4.89453 20.0003 6.00002C20.0003 7.1037 19.1045 8.00012 17.9999 8.00012Z" fill="#F62700"/>
</svg>
