<svg width="15" height="15" viewBox="0 0 15 15" fill="none" xmlns="http://www.w3.org/2000/svg">
<g clip-path="url(#clip0_36_30)">
<path fill-rule="evenodd" clip-rule="evenodd" d="M13.812 4.01812C12.4833 5.34687 9.36453 8.465 8.60391 9.22312C8.43953 9.38687 8.24391 9.51625 8.03391 9.60062C7.42391 9.85375 5.93578 10.4375 5.49828 10.4669C5.23766 10.4844 4.98203 10.3881 4.79703 10.2031C4.61203 10.0181 4.51578 9.7625 4.53328 9.50187C4.56266 9.06437 5.14641 7.5775 5.39516 6.97C5.48203 6.75437 5.61141 6.55875 5.77578 6.395L10.982 1.18812C11.2339 0.936249 11.5764 0.794374 11.9327 0.794374C12.2889 0.794374 12.6314 0.936249 12.8833 1.18812L13.812 2.11687C14.0639 2.36875 14.2058 2.71125 14.2058 3.0675C14.2058 3.42375 14.0639 3.76625 13.812 4.01812ZM5.47266 9.5275C5.90016 9.47375 7.14953 8.9525 7.67453 8.73438C7.67641 8.73375 7.67828 8.73312 7.67953 8.7325C7.77766 8.69312 7.86641 8.63437 7.94078 8.56L7.94141 8.55937C8.70328 7.80125 11.8208 4.68375 13.1489 3.355C13.2252 3.27875 13.2683 3.17562 13.2683 3.0675C13.2683 2.95937 13.2252 2.85625 13.1489 2.78L12.2202 1.85125C12.1439 1.775 12.0408 1.73187 11.9327 1.73187C11.8245 1.73187 11.7214 1.775 11.6452 1.85125L6.43828 7.05812C6.36328 7.1325 6.30453 7.22187 6.26516 7.32L6.26391 7.3225C6.04828 7.84875 5.52641 9.09937 5.47266 9.5275Z" fill="black"/>
<path fill-rule="evenodd" clip-rule="evenodd" d="M12.5738 4.59313C12.7563 4.77625 12.7563 5.07313 12.5738 5.25625C12.3907 5.43938 12.0938 5.43938 11.9107 5.25625L9.74379 3.08938C9.56066 2.90625 9.56066 2.60938 9.74379 2.42625C9.92691 2.24375 10.2238 2.24375 10.4069 2.42625L12.5738 4.59313Z" fill="black"/>
<path fill-rule="evenodd" clip-rule="evenodd" d="M8.74797 8.41875C8.93109 8.60125 8.93109 8.89875 8.74797 9.08125C8.56547 9.26437 8.26797 9.26437 8.08547 9.08125L5.91859 6.91437C5.73547 6.73187 5.73547 6.43437 5.91859 6.25187C6.10109 6.06875 6.39859 6.06875 6.58109 6.25187L8.74797 8.41875Z" fill="black"/>
<path fill-rule="evenodd" clip-rule="evenodd" d="M5.3125 2.03125C5.57125 2.03125 5.78125 2.24125 5.78125 2.5C5.78125 2.75875 5.57125 2.96875 5.3125 2.96875H3.125C2.34812 2.96875 1.71875 3.59812 1.71875 4.375V11.875C1.71875 12.2481 1.86687 12.6056 2.13063 12.8694C2.39437 13.1331 2.75188 13.2812 3.125 13.2812H11.25C11.6231 13.2812 11.9806 13.1331 12.2444 12.8694C12.5081 12.6056 12.6562 12.2481 12.6562 11.875V9.6875C12.6562 9.42875 12.8663 9.21875 13.125 9.21875C13.3837 9.21875 13.5938 9.42875 13.5938 9.6875V11.875C13.5938 12.4969 13.3469 13.0925 12.9075 13.5325C12.4675 13.9719 11.8719 14.2188 11.25 14.2188H3.125C2.50312 14.2188 1.9075 13.9719 1.4675 13.5325C1.02813 13.0925 0.78125 12.4969 0.78125 11.875V4.375C0.78125 3.08062 1.83062 2.03125 3.125 2.03125H5.3125Z" fill="black"/>
</g>
<defs>
<clipPath id="clip0_36_30">
<rect width="15" height="15" fill="white"/>
</clipPath>
</defs>
</svg>
