<svg width="183" height="63" viewBox="0 0 183 63" fill="none" xmlns="http://www.w3.org/2000/svg">
<g clip-path="url(#clip0_1_538)">
<path d="M22.7956 0C25.8979 0 28.4168 2.52824 28.4168 5.64211C28.4168 8.75717 25.8979 11.2842 22.7956 11.2842C19.6932 11.2842 17.1743 8.75598 17.1743 5.64211C17.1743 2.52824 19.6932 0 22.7956 0Z" fill="#7B2F92"/>
<path d="M45.5916 0H34.3491V11.2842H45.5916V0Z" fill="#CE036A"/>
<path d="M5.62125 17.2382C8.7236 17.2382 11.2425 19.7665 11.2425 22.8803C11.2425 25.9954 8.7236 28.5224 5.62125 28.5224C2.51889 28.5224 0 25.9954 0 22.8815C0 19.7665 2.51889 17.2382 5.62125 17.2382Z" fill="#7B2F92"/>
<path d="M28.4168 17.2382H17.1743V28.5224H28.4168V17.2382Z" fill="#CE036A"/>
<path d="M39.9704 17.2382C43.0727 17.2382 45.5916 19.7665 45.5916 22.8803C45.5916 25.9954 43.0727 28.5224 39.9704 28.5224C36.868 28.5224 34.3491 25.9942 34.3491 22.8803C34.3491 19.7665 36.868 17.2382 39.9704 17.2382Z" fill="#7B2F92"/>
<path d="M62.7669 17.2382H51.5244V28.5224H62.7669V17.2382Z" fill="#CE036A"/>
<path d="M11.2425 34.4776H0V45.7618H11.2425V34.4776Z" fill="#CE036A"/>
<path d="M22.7956 34.4776C25.8979 34.4776 28.4168 37.0058 28.4168 40.1197C28.4168 43.2336 25.8979 45.7618 22.7967 45.7618H22.7944C19.692 45.7618 17.1743 43.2336 17.1743 40.1209C17.1743 37.007 19.6932 34.4788 22.7956 34.4788V34.4776Z" fill="#7B2F92"/>
<path d="M45.5916 34.4776H34.3491V45.7618H45.5916V34.4776Z" fill="#CE036A"/>
<path d="M57.1447 34.4776C60.247 34.4776 62.7647 37.0058 62.7647 40.1185C62.7647 43.2336 60.2459 45.7606 57.1447 45.7606H57.1435C54.0411 45.7606 51.5234 43.2324 51.5234 40.1197C51.5234 37.0046 54.0423 34.4776 57.1447 34.4776Z" fill="#7B2F92"/>
<path d="M28.4168 51.7158H17.1743V63H28.4168V51.7158Z" fill="#CE036A"/>
<path fill-rule="evenodd" clip-rule="evenodd" d="M39.9704 51.7158C43.0621 51.7158 45.5916 54.2547 45.5916 57.3567C45.5916 60.4611 43.0621 62.9988 39.9704 62.9988C36.8787 62.9988 34.3491 60.4599 34.3491 57.3579C34.3491 54.2535 36.8787 51.7158 39.9704 51.7158Z" fill="#7B2F92"/>
<path fill-rule="evenodd" clip-rule="evenodd" d="M96.0317 26.1394L87.9805 44.9666C87.5014 46.0594 86.5444 46.6271 85.5874 46.6271C84.4548 46.6271 83.2796 45.8403 82.9321 44.5738L75.1406 16.5716H80.7986L86.0653 36.2737L93.5508 18.6249C93.8995 17.7524 94.9004 17.0084 96.0317 17.0084C97.1631 17.0084 98.1652 17.7524 98.5127 18.6249L105.999 36.2737L111.265 16.5716H116.923L109.131 44.5738C108.783 45.8403 107.609 46.6271 106.477 46.6271C105.52 46.6271 104.562 46.0582 104.083 44.9666L96.0317 26.1394ZM147.325 38.8079V37.6295C147.325 33.961 144.627 31.0768 140.753 30.29L126.391 27.4499C125.737 27.3202 124.258 26.9262 124.258 25.5716V24.392C124.258 23.1255 125.303 22.0768 126.564 22.0768H157.395L159.449 16.8835L159.573 16.5716H126.564C122.275 16.5716 118.73 20.0426 118.73 24.3491V25.5716C118.73 29.1973 121.385 32.1243 125.303 32.9111L139.752 35.7512C140.405 35.8821 141.84 36.2749 141.84 37.6295V38.8079C141.84 40.0994 140.732 41.1243 139.491 41.1243H112.269L110.738 46.6283H139.491C143.843 46.6283 147.325 43.1776 147.325 38.8079ZM165.156 23.1695C160.361 35.156 160.275 35.4381 155.886 46.6283H149.923C156.655 29.5044 160.034 20.9278 160.063 20.8984C160.76 19.37 161.934 16.574 165.33 16.574H167.592C170.988 16.574 172.162 19.37 172.859 20.8984C172.859 20.9563 176.239 29.533 182.999 46.6283H177.036C172.291 34.5276 172.812 35.7821 167.767 23.1695C167.418 22.297 167.288 22.1649 167.157 22.1649H165.766C165.636 22.1649 165.505 22.297 165.156 23.1695Z" fill="#381653"/>
</g>
<defs>
<clipPath id="clip0_1_538">
<rect width="183" height="63" fill="white"/>
</clipPath>
</defs>
</svg>
